<svg width="15" height="15" viewBox="0 0 15 15" fill="none" xmlns="http://www.w3.org/2000/svg">
<path d="M1.07143 15C0.797293 15 0.523158 14.8954 0.313895 14.6861C-0.104632 14.2676 -0.104632 13.5896 0.313895 13.171L13.171 0.313895C13.5896 -0.104632 14.2676 -0.104632 14.6861 0.313895C15.1046 0.732422 15.1046 1.41044 14.6861 1.82896L1.82896 14.6861C1.6197 14.8954 1.34556 15 1.07143 15Z" fill="#918BC5"/>
<path d="M13.9286 15C13.6544 15 13.3803 14.8954 13.171 14.6861L0.313895 1.82896C-0.104632 1.41044 -0.104632 0.732422 0.313895 0.313895C0.732422 -0.104632 1.41044 -0.104632 1.82896 0.313895L14.6861 13.171C15.1046 13.5896 15.1046 14.2676 14.6861 14.6861C14.4768 14.8954 14.2027 15 13.9286 15Z" fill="#918BC5"/>
</svg>
